<svg viewBox="0 0 42 42" fill="none" xmlns="http://www.w3.org/2000/svg">
<path d="M20.6115 25.7638C22.0027 25.7638 23.1879 25.2485 24.2356 24.2351C25.249 23.1874 25.7643 22.0022 25.7643 20.611C25.7643 19.2197 25.249 18.0346 24.2356 16.9869C23.1879 15.9735 22.0027 15.4582 20.6115 15.4582C19.2202 15.4582 18.0351 15.9735 16.9874 16.9869C15.974 18.0346 15.4587 19.2197 15.4587 20.611C15.4587 22.0022 15.974 23.1874 16.9874 24.2351C18.0351 25.2485 19.2202 25.7638 20.6115 25.7638ZM20.6115 3.43506C25.3349 3.43506 29.3712 5.15265 32.7205 8.50196C36.0698 11.8513 37.7874 15.8876 37.7874 20.611V23.1015C37.7874 24.8191 37.1862 26.279 36.0698 27.4814C34.8675 28.6321 33.4934 29.199 31.7758 29.199C29.7147 29.199 28.0143 28.3402 26.7261 26.6226C25.0085 28.3402 22.9818 29.199 20.6115 29.199C18.2584 29.199 16.2316 28.3402 14.5312 26.6913C12.8823 24.9909 12.0235 22.9813 12.0235 20.611C12.0235 18.2579 12.8823 16.2311 14.5312 14.5307C16.2316 12.8818 18.2584 12.023 20.6115 12.023C22.9818 12.023 24.9913 12.8818 26.6918 14.5307C28.3406 16.2311 29.1994 18.2579 29.1994 20.611V23.1015C29.1994 23.8057 29.4743 24.424 29.9895 24.9565C30.5048 25.489 31.106 25.7638 31.7758 25.7638C32.4972 25.7638 33.0984 25.489 33.6137 24.9565C34.1289 24.424 34.3522 23.8057 34.3522 23.1015V20.611C34.3522 16.8495 33.0297 13.6204 30.3159 10.9066C27.6021 8.19279 24.373 6.87024 20.6115 6.87024C16.8499 6.87024 13.6209 8.19279 10.9071 10.9066C8.19328 13.6204 6.87073 16.8495 6.87073 20.611C6.87073 24.3725 8.19328 27.6016 10.9071 30.3154C13.6209 33.0292 16.8499 34.3517 20.6115 34.3517H29.1994V37.7869H20.6115C15.8881 37.7869 11.8518 36.0693 8.50245 32.72C5.15314 29.3707 3.43555 25.3344 3.43555 20.611C3.43555 15.8876 5.15314 11.8513 8.50245 8.50196C11.8518 5.15265 15.8881 3.43506 20.6115 3.43506Z" fill="#333333"/>
</svg>
