<svg viewBox="0 0 17 15" fill="none" xmlns="http://www.w3.org/2000/svg">
<path d="M5.68939 4.4894L1.17023 5.1446L1.09019 5.1609C0.969018 5.19306 0.858558 5.25681 0.770085 5.34563C0.681612 5.43445 0.618297 5.54516 0.586606 5.66645C0.554914 5.78774 0.555981 5.91528 0.589698 6.03602C0.623415 6.15677 0.688573 6.2664 0.77852 6.35373L4.05244 9.54052L3.28035 14.042L3.27114 14.1199C3.26373 14.2452 3.28975 14.3703 3.34655 14.4822C3.40334 14.5942 3.48888 14.689 3.59438 14.757C3.69989 14.8251 3.82158 14.8639 3.947 14.8694C4.07242 14.8749 4.19705 14.847 4.30814 14.7886L8.34989 12.6636L12.3824 14.7886L12.4533 14.8211C12.5702 14.8672 12.6973 14.8813 12.8214 14.8621C12.9456 14.8428 13.0624 14.7908 13.1599 14.7115C13.2574 14.6322 13.332 14.5284 13.3761 14.4108C13.4202 14.2931 13.4322 14.1658 13.4109 14.042L12.6381 9.54052L15.9135 6.35302L15.9687 6.29281C16.0477 6.19561 16.0994 6.07922 16.1187 5.9555C16.138 5.83178 16.1242 5.70516 16.0786 5.58854C16.033 5.47191 15.9573 5.36945 15.8593 5.29159C15.7612 5.21373 15.6443 5.16326 15.5204 5.14531L11.0012 4.4894L8.98102 0.395228C8.92257 0.276607 8.83207 0.176718 8.71978 0.106869C8.60749 0.0370199 8.47789 0 8.34565 0C8.2134 0 8.0838 0.0370199 7.97151 0.106869C7.85922 0.176718 7.76872 0.276607 7.71027 0.395228L5.68939 4.4894Z" fill="#333333"/>
</svg>
