<svg viewBox="0 0 26 26" fill="none" xmlns="http://www.w3.org/2000/svg">
<path d="M13.4062 3.14844H9.20833C6.31028 3.14844 3.96094 5.49778 3.96094 8.39583V16.7917C3.96094 19.6897 6.31028 22.0391 9.20833 22.0391H17.6042C20.5022 22.0391 22.8516 19.6897 22.8516 16.7917V8.39583C22.8516 5.49778 20.5022 3.14844 17.6042 3.14844H13.4062Z" stroke="white" stroke-linecap="round" stroke-linejoin="round"/>
<path d="M13.4069 8.396C15.7253 8.396 17.6048 10.2755 17.6048 12.5939C17.6048 14.9124 15.7253 16.7918 13.4069 16.7918C11.0885 16.7918 9.20898 14.9123 9.20898 12.5939C9.20898 10.2755 11.0885 8.396 13.4069 8.396Z" stroke="white" stroke-linecap="round" stroke-linejoin="round"/>
<path d="M18.6543 8.92041C19.5237 8.92041 20.2285 8.21561 20.2285 7.34619C20.2285 6.47677 19.5237 5.77197 18.6543 5.77197C17.7849 5.77197 17.0801 6.47677 17.0801 7.34619C17.0801 8.21561 17.7849 8.92041 18.6543 8.92041Z" fill="white"/>
</svg>
