<svg viewBox="0 0 41 41" fill="none" xmlns="http://www.w3.org/2000/svg">
<path d="M20.5 3.4165C11.0648 3.4165 3.41663 11.0647 3.41663 20.4998C3.41663 29.935 11.0648 37.5832 20.5 37.5832C29.9351 37.5832 37.5833 29.935 37.5833 20.4998C37.5833 11.0647 29.9351 3.4165 20.5 3.4165Z" stroke="white" stroke-width="2.0625" stroke-linecap="round" stroke-linejoin="round"/>
<path d="M13.6666 36.1617V23.9163L20.5 11.958L27.3333 23.9163V36.1617" stroke="white" stroke-width="2.0625" stroke-linecap="round" stroke-linejoin="round"/>
<path d="M13.6666 23.9165C13.6666 23.9165 15.5919 25.6248 17.0833 25.6248C18.5747 25.6248 20.5 23.9165 20.5 23.9165C20.5 23.9165 22.4252 25.6248 23.9166 25.6248C25.408 25.6248 27.3333 23.9165 27.3333 23.9165" stroke="white" stroke-width="2.0625" stroke-linecap="round" stroke-linejoin="round"/>
</svg>
