<svg viewBox="0 0 28 27" fill="none" xmlns="http://www.w3.org/2000/svg">
<path d="M20.158 15.4649L16.783 13.7774C16.6833 13.7278 16.5723 13.7054 16.4612 13.7124C16.3501 13.7195 16.2428 13.7557 16.1501 13.8175L14.4964 14.9196C13.6592 14.491 12.978 13.8099 12.5494 12.9727L13.6526 11.32C13.7144 11.2273 13.7506 11.12 13.7577 11.0089C13.7647 10.8978 13.7423 10.7868 13.6927 10.6871L12.0052 7.31215C11.9528 7.20656 11.8718 7.11773 11.7716 7.05567C11.6713 6.99361 11.5557 6.9608 11.4378 6.96094C10.3749 6.96094 9.35546 7.38319 8.60385 8.1348C7.85224 8.88641 7.42999 9.90581 7.42999 10.9688C7.43278 13.3735 8.3893 15.6789 10.0897 17.3793C11.7901 19.0798 14.0956 20.0363 16.5003 20.0391C17.5632 20.0391 18.5826 19.6168 19.3343 18.8652C20.0859 18.1136 20.5081 17.0942 20.5081 16.0312C20.5082 15.9136 20.4754 15.7983 20.4136 15.6983C20.3517 15.5982 20.2632 15.5174 20.158 15.4649ZM16.5003 18.7734C14.4311 18.7709 12.4475 17.9478 10.9843 16.4847C9.52121 15.0216 8.69813 13.0379 8.69562 10.9688C8.69568 10.3069 8.93509 9.66746 9.36968 9.16832C9.80427 8.66918 10.4047 8.34406 11.0602 8.25293L12.3955 10.9234L11.2996 12.5666C11.2421 12.6533 11.2067 12.7528 11.1968 12.8564C11.1869 12.9599 11.2026 13.0644 11.2427 13.1604C11.8246 14.5439 12.9252 15.6445 14.3087 16.2264C14.4047 16.2664 14.5091 16.2822 14.6127 16.2722C14.7163 16.2623 14.8158 16.227 14.9025 16.1694L16.5457 15.0736L19.2161 16.4088C19.125 17.0643 18.7999 17.6648 18.3007 18.0994C17.8016 18.534 17.1621 18.7734 16.5003 18.7734ZM13.9691 2.74219C12.1041 2.7418 10.2712 3.22621 8.64994 4.14791C7.02871 5.06961 5.67494 6.39693 4.72143 7.99966C3.76793 9.60238 3.24744 11.4254 3.21103 13.29C3.17463 15.1546 3.62356 16.9966 4.51378 18.6353L3.28824 22.313C3.20147 22.5731 3.18888 22.8523 3.25187 23.1192C3.31486 23.3862 3.45095 23.6303 3.64487 23.8242C3.8388 24.0181 4.0829 24.1542 4.34982 24.2172C4.61673 24.2802 4.89592 24.2676 5.15609 24.1808L8.83378 22.9553C10.2734 23.7365 11.8724 24.1787 13.5089 24.2481C15.1454 24.3176 16.7761 24.0124 18.2767 23.3559C19.7774 22.6994 21.1083 21.7089 22.168 20.4599C23.2277 19.2109 23.9882 17.7365 24.3915 16.1489C24.7948 14.5614 24.8303 12.9028 24.4952 11.2995C24.1602 9.69613 23.4635 8.19049 22.4582 6.89734C21.4529 5.60418 20.1655 4.55766 18.6944 3.83756C17.2232 3.11747 15.607 2.74282 13.9691 2.74219ZM13.9691 22.9922C12.3005 22.9926 10.6613 22.5531 9.21663 21.7181C9.12033 21.6628 9.01131 21.6333 8.90023 21.6327C8.83214 21.6331 8.76452 21.6441 8.69984 21.6654L4.75636 22.9795C4.71919 22.9919 4.67931 22.9937 4.64118 22.9847C4.60305 22.9757 4.56818 22.9563 4.54047 22.9286C4.51277 22.9009 4.49333 22.866 4.48433 22.8279C4.47533 22.7897 4.47713 22.7499 4.48952 22.7127L5.80367 18.7734C5.8321 18.6883 5.8421 18.5981 5.83301 18.5088C5.82392 18.4196 5.79594 18.3332 5.75093 18.2556C4.7039 16.4469 4.28303 14.3432 4.55364 12.2709C4.82425 10.1986 5.77119 8.27356 7.24756 6.79438C8.72394 5.31521 10.6472 4.36461 12.719 4.09007C14.7908 3.81553 16.8952 4.2324 18.7059 5.276C20.5166 6.3196 21.9322 7.93159 22.7332 9.86189C23.5342 11.7922 23.6758 13.9329 23.136 15.9518C22.5962 17.9708 21.4051 19.7552 19.7477 21.0282C18.0902 22.3011 16.0589 22.9915 13.9691 22.9922Z" fill="white"/>
</svg>
