<svg viewBox="0 0 34 34" fill="none" xmlns="http://www.w3.org/2000/svg">
<path d="M17.0007 1.77051C13.3832 1.76865 9.8832 3.05456 7.12737 5.39798C4.37154 7.74139 2.53989 10.9893 1.96038 14.56C1.38088 18.1308 2.09138 21.7912 3.96465 24.8859C5.83792 27.9806 8.75163 30.3074 12.184 31.4497C12.949 31.5913 13.2253 31.1238 13.2253 30.7413V28.1559C8.97528 29.0768 8.09695 26.1159 8.09695 26.1159C7.81583 25.1791 7.2042 24.3762 6.3757 23.8563C4.99445 22.9143 6.48195 22.9284 6.48195 22.9284C6.96443 22.996 7.42514 23.1727 7.82898 23.4452C8.23283 23.7177 8.56916 24.0788 8.81236 24.5009C10.1724 26.8313 12.354 26.1584 13.2465 25.7688C13.317 24.995 13.6611 24.2717 14.2169 23.7288C10.8311 23.3463 7.27528 22.043 7.27528 16.2063C7.25284 14.6922 7.81622 13.2279 8.84778 12.1193C8.37912 10.8064 8.43236 9.36363 8.99653 8.08884C8.99653 8.08884 10.2715 7.67801 13.1828 9.64718C15.6778 8.96717 18.3094 8.96717 20.8044 9.64718C23.7157 7.67801 24.9907 8.08884 24.9907 8.08884C25.5506 9.36461 25.6038 10.8057 25.1394 12.1193C26.1691 13.2286 26.73 14.693 26.7049 16.2063C26.7049 22.0572 23.1632 23.3393 19.7561 23.7218C20.1217 24.0922 20.4033 24.5369 20.5817 25.0258C20.7602 25.5147 20.8313 26.0363 20.7903 26.5551V30.7343C20.7903 31.2372 21.0665 31.6126 21.8386 31.4426C25.2675 30.2959 28.1766 27.9666 30.0454 24.8716C31.9143 21.7765 32.621 18.1174 32.0392 14.549C31.4574 10.9805 29.625 7.7355 26.8698 5.39434C24.1145 3.05319 20.6163 1.76865 17.0007 1.77051Z" stroke="#333333" stroke-linecap="round" stroke-linejoin="round"/>
</svg>
