<svg viewBox="0 0 41 41" fill="none" xmlns="http://www.w3.org/2000/svg">
<path d="M5.75438 8.99139V28.7721H15.375V20.5002C15.375 19.594 15.735 18.725 16.3757 18.0842C17.0165 17.4435 17.8855 17.0835 18.7917 17.0835H27.3333C28.2395 17.0835 29.1085 17.4435 29.7493 18.0842C30.39 18.725 30.75 19.594 30.75 20.5002V28.7721H35.2456V8.99139H5.75438ZM0 32.3686V30.7502H6.83333C5.92717 30.7502 5.05813 30.3902 4.41738 29.7494C3.77663 29.1087 3.41666 28.2397 3.41666 27.3335V10.2502C3.41666 9.34401 3.77663 8.47496 4.41738 7.83421C5.05813 7.19347 5.92717 6.8335 6.83333 6.8335H34.1666C35.0728 6.8335 35.9418 7.19347 36.5826 7.83421C37.2233 8.47496 37.5833 9.34401 37.5833 10.2502V27.3335C37.5833 28.2397 37.2233 29.1087 36.5826 29.7494C35.9418 30.3902 35.0728 30.7502 34.1666 30.7502H41V32.3686H30.2105C30.2105 33.2747 30.39 35.942 29.7493 36.5828C29.1085 37.2235 28.2395 37.5835 27.3333 37.5835H18.7917C17.8855 37.5835 17.0165 37.2235 16.3757 36.5828C15.735 35.942 15.8246 33.2747 15.8246 32.3686H0ZM17.2631 19.4212V35.625L23.0175 35.6054L28.7719 35.625V19.4212H17.2631Z" fill="#333333"/>
</svg>
