<svg viewBox="0 0 26 25" fill="none" xmlns="http://www.w3.org/2000/svg">
<path d="M8.28174 9.37491H4.11507C3.97694 9.37491 3.84446 9.42978 3.74679 9.52746C3.64911 9.62514 3.59424 9.75761 3.59424 9.89575V22.3957C3.59424 22.5339 3.64911 22.6664 3.74679 22.764C3.84446 22.8617 3.97694 22.9166 4.11507 22.9166H8.28174C8.41987 22.9166 8.55235 22.8617 8.65002 22.764C8.7477 22.6664 8.80257 22.5339 8.80257 22.3957V9.89575C8.80257 9.75761 8.7477 9.62514 8.65002 9.52746C8.55235 9.42978 8.41987 9.37491 8.28174 9.37491ZM7.76091 21.8749H4.63591V10.4166H7.76091V21.8749ZM19.2192 9.37491C18.089 9.37491 16.9901 9.74783 16.0942 10.4364V9.89575C16.0942 9.75761 16.0394 9.62514 15.9417 9.52746C15.844 9.42978 15.7115 9.37491 15.5734 9.37491H11.4067C11.2686 9.37491 11.1361 9.42978 11.0385 9.52746C10.9408 9.62514 10.8859 9.75761 10.8859 9.89575V22.3957C10.8859 22.5339 10.9408 22.6664 11.0385 22.764C11.1361 22.8617 11.2686 22.9166 11.4067 22.9166H15.5734C15.7115 22.9166 15.844 22.8617 15.9417 22.764C16.0394 22.6664 16.0942 22.5339 16.0942 22.3957V16.6666C16.0942 16.2522 16.2589 15.8547 16.5519 15.5617C16.8449 15.2687 17.2423 15.1041 17.6567 15.1041C18.0711 15.1041 18.4686 15.2687 18.7616 15.5617C19.0546 15.8547 19.2192 16.2522 19.2192 16.6666V22.3957C19.2192 22.5339 19.2741 22.6664 19.3718 22.764C19.4695 22.8617 19.6019 22.9166 19.7401 22.9166H23.9067C24.0449 22.9166 24.1773 22.8617 24.275 22.764C24.3727 22.6664 24.4276 22.5339 24.4276 22.3957V14.5832C24.4259 13.2024 23.8767 11.8786 22.9003 10.9022C21.9239 9.92583 20.6001 9.37657 19.2192 9.37491ZM23.3859 21.8749H20.2609V16.6666C20.2609 15.9759 19.9865 15.3135 19.4982 14.8252C19.0098 14.3368 18.3474 14.0624 17.6567 14.0624C16.9661 14.0624 16.3037 14.3368 15.8153 14.8252C15.3269 15.3135 15.0526 15.9759 15.0526 16.6666V21.8749H11.9276V10.4166H15.0526V11.6697C15.0525 11.7776 15.086 11.8828 15.1484 11.9708C15.2107 12.0589 15.2988 12.1254 15.4006 12.1612C15.5024 12.1969 15.6127 12.2002 15.7165 12.1706C15.8202 12.141 15.9122 12.0799 15.9797 11.9957C16.5146 11.3177 17.2478 10.8235 18.077 10.582C18.9062 10.3405 19.7901 10.3639 20.6054 10.6487C21.4207 10.9335 22.1268 11.4657 22.6253 12.171C23.1237 12.8763 23.3896 13.7196 23.3859 14.5832V21.8749ZM6.58174 2.08533C6.45934 2.0767 6.33652 2.07601 6.21403 2.08324C5.82421 2.05672 5.43309 2.11052 5.0649 2.24131C4.69671 2.37209 4.3593 2.57709 4.07356 2.84359C3.78783 3.11008 3.55985 3.43241 3.40376 3.79061C3.24767 4.1488 3.16678 4.53523 3.16611 4.92595C3.16288 5.3126 3.23911 5.69578 3.39007 6.05175C3.54104 6.40772 3.76353 6.72888 4.04373 6.99531C4.32394 7.26175 4.65589 7.46778 5.01901 7.60063C5.38213 7.73348 5.76867 7.79032 6.15466 7.76762H6.18382C6.55693 7.79375 6.93152 7.74613 7.28623 7.62749C7.64093 7.50885 7.96879 7.3215 8.25109 7.07615C8.53339 6.8308 8.7646 6.53225 8.93152 6.19755C9.09844 5.86284 9.1978 5.49854 9.22393 5.12543C9.25005 4.75233 9.20244 4.37773 9.0838 4.02303C8.96515 3.66833 8.77781 3.34046 8.53246 3.05816C8.28711 2.77587 7.98856 2.54465 7.65385 2.37774C7.31915 2.21082 6.95484 2.11146 6.58174 2.08533ZM6.54528 6.72908C6.42499 6.74001 6.30391 6.73897 6.18382 6.72595H6.15466C5.90396 6.7448 5.65208 6.71116 5.41511 6.62719C5.17814 6.54322 4.96129 6.41076 4.77839 6.23827C4.59549 6.06578 4.45057 5.85704 4.35288 5.62539C4.25518 5.39374 4.20687 5.14427 4.21101 4.8929C4.21516 4.64152 4.27167 4.39378 4.37695 4.16547C4.48222 3.93717 4.63395 3.73333 4.82243 3.56696C5.01092 3.40059 5.23203 3.27535 5.47163 3.19924C5.71124 3.12312 5.96409 3.09781 6.21403 3.12491C6.69197 3.08098 7.16779 3.22872 7.53681 3.53561C7.90582 3.84251 8.13781 4.28343 8.18174 4.76137C8.22567 5.23931 8.07793 5.71513 7.77104 6.08415C7.46414 6.45316 7.02322 6.68515 6.54528 6.72908Z" fill="#333333"/>
</svg>
