<svg viewBox="0 0 16 15" fill="none" xmlns="http://www.w3.org/2000/svg">
<path d="M5.25299 4.4894L0.733827 5.1446L0.653785 5.16089C0.532617 5.19306 0.422157 5.25681 0.333684 5.34563C0.245211 5.43445 0.181896 5.54516 0.150204 5.66645C0.118512 5.78774 0.11958 5.91528 0.153296 6.03602C0.187013 6.15677 0.252172 6.2664 0.342118 6.35373L3.61604 9.54052L2.84395 14.042L2.83474 14.1199C2.82733 14.2452 2.85335 14.3703 2.91015 14.4822C2.96694 14.5942 3.05247 14.689 3.15798 14.757C3.26349 14.8251 3.38518 14.8639 3.5106 14.8694C3.63602 14.8749 3.76065 14.847 3.87174 14.7886L7.91349 12.6636L11.946 14.7886L12.0169 14.8211C12.1338 14.8672 12.2609 14.8813 12.385 14.8621C12.5092 14.8428 12.626 14.7908 12.7235 14.7115C12.821 14.6322 12.8956 14.5284 12.9397 14.4108C12.9838 14.2931 12.9958 14.1658 12.9745 14.042L12.2017 9.54052L15.4771 6.35302L15.5323 6.29281C15.6112 6.19561 15.663 6.07922 15.6823 5.9555C15.7016 5.83178 15.6878 5.70516 15.6422 5.58854C15.5966 5.47191 15.5209 5.36945 15.4229 5.29159C15.3248 5.21373 15.2079 5.16326 15.084 5.14531L10.5648 4.4894L8.54462 0.395228C8.48616 0.276607 8.39567 0.176718 8.28338 0.106869C8.17109 0.0370199 8.04149 0 7.90924 0C7.777 0 7.6474 0.0370199 7.53511 0.106869C7.42282 0.176718 7.33232 0.276607 7.27387 0.395228L5.25299 4.4894Z" fill="white"/>
</svg>
