<svg viewBox="0 0 71 71" fill="none" xmlns="http://www.w3.org/2000/svg">
<path d="M17.6169 44.3661C15.5561 44.3661 13.5798 45.1848 12.1226 46.6419C10.6654 48.0991 9.8468 50.0754 9.8468 52.1362C9.8468 54.1969 10.6654 56.1733 12.1226 57.6304C13.5798 59.0876 15.5561 59.9062 17.6169 59.9062C19.6776 59.9062 21.654 59.0876 23.1111 57.6304C24.5683 56.1733 25.3869 54.1969 25.3869 52.1362C25.3869 50.0754 24.5683 48.0991 23.1111 46.6419C21.654 45.1848 19.6776 44.3661 17.6169 44.3661ZM12.0633 52.1362C12.0633 51.4072 12.2069 50.6853 12.4859 50.0118C12.7649 49.3383 13.1738 48.7263 13.6893 48.2108C14.2048 47.6953 14.8167 47.2864 15.4903 47.0074C16.1638 46.7285 16.8856 46.5849 17.6146 46.5849C18.3437 46.5849 19.0655 46.7285 19.739 47.0074C20.4126 47.2864 21.0245 47.6953 21.54 48.2108C22.0555 48.7263 22.4644 49.3383 22.7434 50.0118C23.0224 50.6853 23.166 51.4072 23.166 52.1362C23.166 53.6085 22.5811 55.0205 21.54 56.0616C20.4989 57.1026 19.0869 57.6875 17.6146 57.6875C16.1423 57.6875 14.7303 57.1026 13.6893 56.0616C12.6482 55.0205 12.0633 53.6085 12.0633 52.1362ZM55.4687 47.7031C55.4687 49.7627 54.6506 51.7379 53.1942 53.1943C51.7379 54.6506 49.7627 55.4688 47.7031 55.4688C45.6435 55.4688 43.6683 54.6506 42.212 53.1943C40.7557 51.7379 39.9375 49.7627 39.9375 47.7031C39.9375 45.6436 40.7557 43.6683 42.212 42.212C43.6683 40.7557 45.6435 39.9375 47.7031 39.9375C49.7627 39.9375 51.7379 40.7557 53.1942 42.212C54.6506 43.6683 55.4687 45.6436 55.4687 47.7031Z" fill="#333333"/>
<path d="M62.2737 32.7064C58.2795 28.9032 53.0085 26.7295 47.4946 26.6115C43.7766 26.5584 40.1164 27.5359 36.92 29.4357C33.7235 31.3355 31.1155 34.0833 29.3852 37.3746C28.1515 34.9185 26.4542 31.5193 25.0852 28.7747H29.7845C31.1731 28.6846 32.4911 28.1308 33.5275 27.2023C34.5638 26.2738 35.2585 25.0242 35.5 23.6539C36.3692 22.9266 37.0609 22.0106 37.5223 20.9755C37.9837 19.9404 38.2027 18.8136 38.1625 17.681C38.1625 9.55593 29.0657 5.47786 24.0202 5.47786C17.1133 5.36693 15.0853 10.4346 13.277 14.9475L13.2548 15.0052C12.1455 17.8762 2.35635 43.2809 2.35635 50.9955C2.33731 55.7079 4.16992 60.2393 7.45947 63.6136C9.12396 65.2814 11.1099 66.5937 13.2968 67.4709C15.4838 68.3482 17.8261 68.772 20.1818 68.7167H45.5133C61.4883 68.7167 68.7813 56.9861 68.7813 46.0854C68.6632 43.5301 68.0252 41.0257 66.9062 38.7253C65.7873 36.4249 64.211 34.3768 62.2737 32.7064ZM17.3839 16.6404C19.3209 11.7924 20.3948 9.9198 23.8338 9.9198H23.9892C27.2973 9.9198 33.7317 12.66 33.7317 17.6854C33.7406 18.1913 33.6496 18.6927 33.4632 19.1631C33.443 19.1346 33.4245 19.105 33.4078 19.0744C33.3856 19.0389 33.3634 19.0011 33.3368 18.9723C33.0896 18.6782 32.8029 18.4199 32.4848 18.2046C32.1512 17.9715 31.7576 17.839 31.351 17.823H30.1595C29.0168 16.3764 25.5001 13.8004 22.7422 14.2885L25.6266 17.945H29.7313L30.3259 19.3628C31.0625 21.1178 30.8074 21.9876 30.5678 22.3692C30.4688 22.5295 30.3342 22.6649 30.1746 22.7649C30.0149 22.8649 29.8344 22.9269 29.647 22.9461H15.7066L17.0778 24.7211C17.6923 25.4755 18.4445 26.1056 19.2965 26.5782C19.2975 26.911 19.3733 27.2393 19.5184 27.5389L20.3038 29.112C21.0493 30.6074 22.2208 32.9571 23.3879 35.289C21.6054 34.7587 19.7582 34.4772 17.8987 34.4525C15.2708 34.4589 12.6861 35.1216 10.3793 36.3806C12.5302 29.7367 14.866 23.154 17.3839 16.6404ZM39.0811 64.2747H20.1773C18.4115 64.3254 16.6537 64.0172 15.0104 63.3688C13.3671 62.7205 11.8724 61.7455 10.6168 60.5029C8.14878 57.9696 6.77572 54.5677 6.79385 51.031C6.9594 48.7285 7.37679 46.451 8.03857 44.2394C9.1403 42.633 10.6076 41.311 12.3198 40.3822C14.032 39.4534 15.9403 38.9443 17.8876 38.8967C19.6959 38.9297 21.4862 39.2619 23.186 39.8796C24.3619 40.2901 25.4824 40.8558 26.5141 41.557C26.7981 42.1205 27.0089 42.531 27.091 42.6863C27.3071 43.1593 27.649 43.5639 28.0794 43.8558C28.5098 44.1477 29.0122 44.3157 29.5316 44.3415C28.8233 48.2465 29.3652 52.2755 31.0802 55.8546C32.7953 59.4336 35.5937 62.3802 39.0811 64.2747ZM46.4118 64.2592C42.1753 63.8323 38.2635 61.7976 35.4817 58.5738C32.6999 55.3501 31.2597 51.1826 31.4576 46.9292C31.6555 42.6757 33.4763 38.66 36.5454 35.7084C39.6144 32.7568 43.6982 31.094 47.9561 31.0623C52.1784 31.2841 56.1877 33.017 59.2473 35.9524C60.7294 37.2155 61.9437 38.7623 62.819 40.5017C63.6943 42.2412 64.2127 44.1382 64.3438 46.081C64.3438 54.9271 58.788 63.8487 46.4118 64.2592Z" fill="#333333"/>
</svg>
