<svg viewBox="0 0 41 41" fill="none" xmlns="http://www.w3.org/2000/svg">
<path d="M25.8787 16.0405C25.8787 16.0405 23.1197 23.8152 21.8095 25.1724C21.1769 25.8103 20.3186 26.1733 19.4203 26.183C18.5221 26.1927 17.6561 25.8483 17.01 25.2242C16.3638 24.6002 15.9894 23.7467 15.9678 22.8487C15.9462 21.9506 16.2791 21.0802 16.8946 20.4258C18.2049 19.0677 25.8787 16.0405 25.8787 16.0405Z" stroke="#333333" stroke-width="2.75" stroke-linejoin="round"/>
<path d="M33.1844 33.1844C34.8522 31.5202 36.1749 29.543 37.0763 27.3662C37.9778 25.1895 38.4404 22.8561 38.4375 20.5C38.4375 10.5934 30.4066 2.5625 20.5 2.5625C10.5934 2.5625 2.5625 10.5934 2.5625 20.5C2.5625 25.4533 4.56979 29.9377 7.81562 33.1844M20.5 3.41667V6.83333M33.1801 9.51712L30.5253 11.6671M36.3209 23.2615L32.9922 22.4928M4.67827 23.2615L8.00781 22.4928M7.81989 9.51712L10.4746 11.6671" stroke="#333333" stroke-width="2.75" stroke-linecap="round" stroke-linejoin="round"/>
</svg>
