<svg viewBox="0 0 43 42" fill="none" xmlns="http://www.w3.org/2000/svg">
<path d="M37.0666 24.9261L29.484 21.5269L29.455 21.514C28.9621 21.3015 28.4239 21.2159 27.8894 21.2652C27.3549 21.3144 26.8413 21.4968 26.3956 21.7958C26.3331 21.8376 26.2729 21.8828 26.2152 21.931L22.6228 24.9905C20.5294 23.8553 18.3669 21.7104 17.2301 19.6429L20.2992 15.9941C20.3485 15.9352 20.3942 15.8733 20.436 15.8089C20.7272 15.3647 20.9039 14.8554 20.9505 14.3264C20.9972 13.7974 20.9122 13.265 20.7033 12.7768C20.6984 12.7674 20.6941 12.7578 20.6905 12.7478L17.2929 5.15229C17.014 4.51709 16.538 3.98855 15.9354 3.64489C15.3327 3.30123 14.6355 3.16072 13.9468 3.24415C11.6093 3.55121 9.46351 4.69864 7.91019 6.47213C6.35686 8.24562 5.50222 10.5239 5.50587 12.8815C5.50587 26.0227 16.1963 36.7131 29.3375 36.7131C31.695 36.7167 33.9733 35.8621 35.7468 34.3087C37.5203 32.7554 38.6677 30.6096 38.9748 28.2722C39.0582 27.5835 38.9177 26.8862 38.574 26.2836C38.2304 25.681 37.7019 25.205 37.0666 24.9261ZM29.3375 32.8485C24.0439 32.8421 18.9689 30.7364 15.2257 26.9932C11.4826 23.2501 9.37685 18.1751 9.37046 12.8815C9.36677 11.5474 9.81968 10.2522 10.6539 9.2111C11.4882 8.17002 12.6536 7.44576 13.9564 7.15865L16.9869 13.9217L13.9017 17.5963C13.8518 17.6557 13.8056 17.7181 13.7632 17.783C13.4591 18.2477 13.2803 18.7831 13.2442 19.3372C13.2081 19.8913 13.3159 20.4454 13.5571 20.9456C15.0739 24.0501 18.1994 27.1547 21.3362 28.6747C21.8397 28.9134 22.3965 29.0174 22.9523 28.9765C23.508 28.9356 24.0436 28.7511 24.5067 28.4412C24.569 28.3992 24.6287 28.3535 24.6855 28.3044L28.2973 25.2336L35.0603 28.2625C34.7732 29.5653 34.0489 30.7307 33.0078 31.565C31.9668 32.3993 30.6716 32.8522 29.3375 32.8485Z" fill="white"/>
</svg>
