<svg viewBox="0 0 34 34" fill="none" xmlns="http://www.w3.org/2000/svg">
<path d="M17.0007 1.771C13.3832 1.76914 9.8832 3.05505 7.12737 5.39846C4.37154 7.74188 2.53989 10.9898 1.96038 14.5605C1.38088 18.1313 2.09138 21.7917 3.96465 24.8864C5.83792 27.9811 8.75163 30.3079 12.184 31.4502C12.949 31.5918 13.2253 31.1243 13.2253 30.7418V28.1564C8.97528 29.0772 8.09695 26.1164 8.09695 26.1164C7.81583 25.1796 7.2042 24.3767 6.3757 23.8568C4.99445 22.9147 6.48195 22.9289 6.48195 22.9289C6.96443 22.9964 7.42514 23.1732 7.82898 23.4457C8.23283 23.7182 8.56916 24.0793 8.81236 24.5014C10.1724 26.8318 12.354 26.1589 13.2465 25.7693C13.317 24.9955 13.6611 24.2722 14.2169 23.7293C10.8311 23.3468 7.27528 22.0435 7.27528 16.2068C7.25284 14.6927 7.81622 13.2284 8.84778 12.1197C8.37912 10.8068 8.43236 9.36412 8.99653 8.08933C8.99653 8.08933 10.2715 7.6785 13.1828 9.64766C15.6778 8.96765 18.3094 8.96765 20.8044 9.64766C23.7157 7.6785 24.9907 8.08933 24.9907 8.08933C25.5506 9.3651 25.6038 10.8062 25.1394 12.1197C26.1691 13.2291 26.73 14.6935 26.7049 16.2068C26.7049 22.0577 23.1632 23.3397 19.7561 23.7222C20.1217 24.0927 20.4033 24.5374 20.5817 25.0263C20.7602 25.5152 20.8313 26.0368 20.7903 26.5556V30.7347C20.7903 31.2377 21.0665 31.6131 21.8386 31.4431C25.2675 30.2964 28.1766 27.9671 30.0454 24.872C31.9143 21.7769 32.621 18.1179 32.0392 14.5495C31.4574 10.981 29.625 7.73599 26.8698 5.39483C24.1145 3.05368 20.6163 1.76914 17.0007 1.771Z" stroke="white" stroke-linecap="round" stroke-linejoin="round"/>
</svg>
