<svg viewBox="0 0 99 99" fill="none" xmlns="http://www.w3.org/2000/svg">
<path d="M24.5645 61.8626C21.6911 61.8626 18.9353 63.0041 16.9035 65.0359C14.8717 67.0677 13.7302 69.8235 13.7302 72.6969C13.7302 75.5704 14.8717 78.3261 16.9035 80.358C18.9353 82.3898 21.6911 83.5312 24.5645 83.5312C27.438 83.5312 30.1937 82.3898 32.2256 80.358C34.2574 78.3261 35.3988 75.5704 35.3988 72.6969C35.3988 69.8235 34.2574 67.0677 32.2256 65.0359C30.1937 63.0041 27.438 61.8626 24.5645 61.8626ZM16.8209 72.6969C16.8209 71.6804 17.0211 70.6739 17.4101 69.7348C17.7991 68.7956 18.3693 67.9423 19.088 67.2235C19.8068 66.5048 20.6601 65.9346 21.5993 65.5456C22.5384 65.1566 23.5449 64.9564 24.5614 64.9564C25.5779 64.9564 26.5845 65.1566 27.5236 65.5456C28.4628 65.9346 29.3161 66.5048 30.0348 67.2235C30.7536 67.9423 31.3238 68.7956 31.7128 69.7348C32.1018 70.6739 32.302 71.6804 32.302 72.6969C32.302 74.7499 31.4865 76.7187 30.0348 78.1703C28.5832 79.622 26.6144 80.4375 24.5614 80.4375C22.5085 80.4375 20.5397 79.622 19.088 78.1703C17.6364 76.7187 16.8209 74.7499 16.8209 72.6969ZM77.3439 66.5156C77.3439 69.3874 76.2031 72.1416 74.1724 74.1723C72.1418 76.2029 69.3876 77.3438 66.5158 77.3438C63.644 77.3438 60.8898 76.2029 58.8591 74.1723C56.8285 72.1416 55.6877 69.3874 55.6877 66.5156C55.6877 63.6438 56.8285 60.8896 58.8591 58.859C60.8898 56.8283 63.644 55.6875 66.5158 55.6875C69.3876 55.6875 72.1418 56.8283 74.1724 58.859C76.2031 60.8896 77.3439 63.6438 77.3439 66.5156Z" fill="white"/>
<path d="M86.8323 45.6047C81.2629 40.3018 73.9133 37.2708 66.2249 37.1062C61.0406 37.0322 55.937 38.3953 51.48 41.0443C47.0229 43.6933 43.3864 47.5248 40.9737 52.114C39.2535 48.6892 36.8868 43.9496 34.978 40.1226H41.5305C43.4667 39.9969 45.3045 39.2248 46.7496 37.93C48.1946 36.6353 49.1632 34.893 49.5 32.9822C50.712 31.9682 51.6764 30.6909 52.3198 29.2476C52.9632 27.8042 53.2685 26.2331 53.2125 24.6539C53.2125 13.3245 40.5282 7.63824 33.493 7.63824C23.8621 7.48355 21.0344 14.5497 18.513 20.8424L18.4821 20.9228C16.9352 24.9261 3.28561 60.3495 3.28561 71.1065C3.25905 77.6773 5.81439 83.9957 10.4012 88.7007C12.7221 91.0263 15.4913 92.8561 18.5407 94.0793C21.5901 95.3024 24.8561 95.8934 28.1408 95.8163H63.4621C85.7371 95.8163 95.9063 79.4596 95.9063 64.2601C95.7416 60.697 94.852 57.2049 93.2918 53.9973C91.7316 50.7897 89.5337 47.934 86.8323 45.6047ZM24.2396 23.2029C26.9404 16.4431 28.4378 13.8319 33.2331 13.8319H33.4497C38.0625 13.8319 47.0343 17.6527 47.0343 24.66C47.0467 25.3654 46.9199 26.0646 46.66 26.7205C46.6318 26.6808 46.606 26.6394 46.5826 26.5967C46.5517 26.5472 46.5208 26.4946 46.4836 26.4544C46.1391 26.0444 45.7393 25.6841 45.2956 25.384C44.8305 25.0589 44.2818 24.8742 43.7147 24.8519H42.0534C40.4601 22.8347 35.5565 19.2429 31.711 19.9235L35.7329 25.022H41.4563L42.2854 26.9989C43.3125 29.4461 42.9568 30.6588 42.6226 31.191C42.4846 31.4145 42.297 31.6032 42.0744 31.7427C41.8518 31.8822 41.6001 31.9686 41.3387 31.9953H21.9007L23.8126 34.4703C24.6696 35.5222 25.7184 36.4008 26.9064 37.0598C26.9077 37.5239 27.0135 37.9817 27.2158 38.3994L28.3109 40.5929C29.3504 42.678 30.984 45.9543 32.6113 49.2059C30.1258 48.4664 27.5502 48.0739 24.9573 48.0395C21.293 48.0484 17.689 48.9725 14.4726 50.728C17.4717 41.4639 20.7286 32.2853 24.2396 23.2029ZM54.4934 89.6226H28.1346C25.6724 89.6932 23.2214 89.2635 20.93 88.3595C18.6386 87.4555 16.5544 86.096 14.8036 84.3632C11.3624 80.831 9.44783 76.0874 9.47311 71.156C9.70394 67.9454 10.2859 64.7698 11.2087 61.6861C12.7449 59.4461 14.7909 57.6028 17.1783 56.3077C19.5658 55.0126 22.2266 54.3027 24.9419 54.2363C27.4632 54.2824 29.9596 54.7455 32.3297 55.6068C33.9694 56.1792 35.5318 56.9681 36.9704 57.9457C37.3664 58.7315 37.6603 59.3039 37.7747 59.5204C38.076 60.18 38.5528 60.7441 39.153 61.1512C39.7531 61.5582 40.4536 61.7924 41.1779 61.8284C40.1902 67.2734 40.9458 72.8913 43.3372 77.8818C45.7286 82.8723 49.6307 86.981 54.4934 89.6226ZM64.7151 89.601C58.8078 89.0057 53.3533 86.1685 49.4745 81.6735C45.5957 77.1784 43.5875 71.3674 43.8634 65.4366C44.1393 59.5057 46.6782 53.9062 50.9576 49.7907C55.237 45.6751 60.9313 43.3566 66.8684 43.3123C72.7558 43.6216 78.3462 46.0379 82.6124 50.1309C84.679 51.8921 86.3723 54.0489 87.5927 56.4743C88.8131 58.8998 89.536 61.5448 89.7188 64.2539C89.7188 76.5886 81.972 89.0286 64.7151 89.601Z" fill="white"/>
</svg>
