<svg viewBox="0 0 41 41" fill="none" xmlns="http://www.w3.org/2000/svg">
<path d="M24.7469 5.36911C25.1829 5.49175 25.5524 5.78254 25.7741 6.17754C25.9957 6.57253 26.0515 7.0394 25.929 7.47549L18.3611 34.4467C18.3006 34.6627 18.198 34.8647 18.0594 35.0411C17.9207 35.2175 17.7487 35.3649 17.5531 35.4748C17.3575 35.5848 17.1422 35.6551 16.9194 35.6818C16.6966 35.7085 16.4708 35.6911 16.2547 35.6305C16.0387 35.57 15.8367 35.4674 15.6603 35.3288C15.4839 35.1902 15.3365 35.0181 15.2266 34.8225C15.1166 34.6269 15.0463 34.4116 15.0196 34.1888C14.9929 33.9661 15.0103 33.7402 15.0709 33.5242L22.6388 6.55299C22.6993 6.33674 22.8019 6.13456 22.9406 5.95799C23.0794 5.78142 23.2516 5.63394 23.4474 5.52399C23.6432 5.41403 23.8587 5.34376 24.0817 5.31718C24.3047 5.29061 24.5307 5.30825 24.7469 5.36911ZM12.3119 12.0436C12.6322 12.3639 12.8121 12.7984 12.8121 13.2514C12.8121 13.7044 12.6322 14.1388 12.3119 14.4592L6.27296 20.4998L12.3119 26.5388C12.4706 26.6974 12.5966 26.8857 12.6825 27.093C12.7685 27.3003 12.8127 27.5224 12.8128 27.7468C12.8129 27.9712 12.7688 28.1934 12.683 28.4008C12.5972 28.6081 12.4714 28.7965 12.3128 28.9552C12.1542 29.1139 11.9658 29.2399 11.7586 29.3258C11.5513 29.4118 11.3291 29.456 11.1047 29.4561C10.8803 29.4562 10.6581 29.4121 10.4508 29.3263C10.2435 29.2405 10.0551 29.1147 9.89634 28.9561L2.64788 21.7076C2.32762 21.3873 2.14771 20.9528 2.14771 20.4998C2.14771 20.0468 2.32762 19.6124 2.64788 19.292L9.89634 12.0436C10.2167 11.7233 10.6511 11.5434 11.1041 11.5434C11.5571 11.5434 11.9916 11.7233 12.3119 12.0436ZM28.688 14.4592C28.5248 14.3016 28.3947 14.1131 28.3052 13.9046C28.2156 13.6962 28.1685 13.472 28.1665 13.2452C28.1645 13.0184 28.2078 12.7934 28.2937 12.5835C28.3796 12.3735 28.5064 12.1828 28.6668 12.0224C28.8272 11.862 29.018 11.7351 29.2279 11.6493C29.4379 11.5634 29.6628 11.5201 29.8896 11.5221C30.1165 11.5241 30.3406 11.5712 30.5491 11.6607C30.7575 11.7503 30.946 11.8804 31.1036 12.0436L38.352 19.292C38.6723 19.6124 38.8522 20.0468 38.8522 20.4998C38.8522 20.9528 38.6723 21.3873 38.352 21.7076L31.1036 28.9544C30.7814 29.2655 30.3498 29.4377 29.9019 29.4338C29.454 29.43 29.0255 29.2503 28.7088 28.9336C28.3921 28.6168 28.2124 28.1883 28.2085 27.7404C28.2046 27.2925 28.3768 26.861 28.688 26.5388L34.7269 20.4998L28.688 14.4592Z" fill="#333333"/>
</svg>
