<svg viewBox="0 0 42 42" fill="none" xmlns="http://www.w3.org/2000/svg">
<path d="M20.6115 25.764C22.0027 25.764 23.1879 25.2487 24.2356 24.2354C25.249 23.1876 25.7643 22.0025 25.7643 20.6112C25.7643 19.22 25.249 18.0348 24.2356 16.9871C23.1879 15.9737 22.0027 15.4585 20.6115 15.4585C19.2202 15.4585 18.0351 15.9737 16.9874 16.9871C15.974 18.0348 15.4587 19.22 15.4587 20.6112C15.4587 22.0025 15.974 23.1876 16.9874 24.2354C18.0351 25.2487 19.2202 25.764 20.6115 25.764ZM20.6115 3.4353C25.3349 3.4353 29.3712 5.1529 32.7205 8.5022C36.0698 11.8515 37.7874 15.8879 37.7874 20.6112V23.1017C37.7874 24.8193 37.1862 26.2793 36.0698 27.4816C34.8675 28.6324 33.4934 29.1992 31.7758 29.1992C29.7147 29.1992 28.0143 28.3404 26.7261 26.6228C25.0085 28.3404 22.9818 29.1992 20.6115 29.1992C18.2584 29.1992 16.2316 28.3404 14.5312 26.6915C12.8823 24.9911 12.0235 22.9815 12.0235 20.6112C12.0235 18.2581 12.8823 16.2314 14.5312 14.531C16.2316 12.8821 18.2584 12.0233 20.6115 12.0233C22.9818 12.0233 24.9913 12.8821 26.6918 14.531C28.3406 16.2314 29.1994 18.2581 29.1994 20.6112V23.1017C29.1994 23.806 29.4743 24.4243 29.9895 24.9567C30.5048 25.4892 31.106 25.764 31.7758 25.764C32.4972 25.764 33.0984 25.4892 33.6137 24.9567C34.1289 24.4243 34.3522 23.806 34.3522 23.1017V20.6112C34.3522 16.8497 33.0297 13.6206 30.3159 10.9068C27.6021 8.19304 24.373 6.87049 20.6115 6.87049C16.8499 6.87049 13.6209 8.19304 10.9071 10.9068C8.19328 13.6206 6.87073 16.8497 6.87073 20.6112C6.87073 24.3728 8.19328 27.6018 10.9071 30.3156C13.6209 33.0294 16.8499 34.352 20.6115 34.352H29.1994V37.7872H20.6115C15.8881 37.7872 11.8518 36.0696 8.50245 32.7203C5.15314 29.371 3.43555 25.3346 3.43555 20.6112C3.43555 15.8879 5.15314 11.8515 8.50245 8.5022C11.8518 5.1529 15.8881 3.4353 20.6115 3.4353Z" fill="white"/>
</svg>
