<svg viewBox="0 0 42 37" fill="none" xmlns="http://www.w3.org/2000/svg">
<g clip-path="url(#clip0_10_85)">
<path d="M27.6359 18.6775C22.4583 18.6775 22.0015 21.8297 22.0015 24.0813C22.0015 18.9776 19.2604 18.6775 16.0625 18.6775C22.0015 18.6775 22.0015 15.225 22.0015 13.1235C22.0015 17.9269 24.8949 18.6775 27.6359 18.6775Z" fill="black" stroke="black"/>
<path d="M0 18.2343L0 19.1152H16.087V18.2343H0Z" fill="black"/>
<path d="M8.8811 14.8489C9.78756 11.5141 11.8713 8.60755 14.7574 6.65174C17.6436 4.69593 21.1429 3.8192 24.6263 4.17918C28.1095 4.53917 31.3484 6.11226 33.7603 8.61561C36.1721 11.1189 37.5989 14.3883 37.784 17.8358C37.969 21.2834 36.9003 24.683 34.77 27.4232C32.6397 30.1636 29.5875 32.0649 26.1621 32.7852C22.7368 33.5057 19.1631 32.9979 16.0836 31.3534C13.0041 29.7087 10.621 27.0352 9.36242 23.8134" stroke="black" stroke-width="1.5" stroke-linecap="round"/>
</g>
<defs>
<clipPath id="clip0_10_85">
<rect width="41.1111" height="37" fill="white"/>
</clipPath>
</defs>
</svg>
