<svg viewBox="0 0 27 27" fill="none" xmlns="http://www.w3.org/2000/svg">
<rect width="27" height="27" rx="2" fill="#FBFBFB"/>
<path d="M8 6.5C7.60218 6.5 7.22064 6.65804 6.93934 6.93934C6.65804 7.22064 6.5 7.60218 6.5 8V18.5C6.5 18.8978 6.65804 19.2794 6.93934 19.5607C7.22064 19.842 7.60218 20 8 20H18.5C18.8978 20 19.2794 19.842 19.5607 19.5607C19.842 19.2794 20 18.8978 20 18.5V15.125C20 14.9261 20.079 14.7353 20.2197 14.5947C20.3603 14.454 20.5511 14.375 20.75 14.375C20.9489 14.375 21.1397 14.454 21.2803 14.5947C21.421 14.7353 21.5 14.9261 21.5 15.125V18.5C21.5 19.2956 21.1839 20.0587 20.6213 20.6213C20.0587 21.1839 19.2956 21.5 18.5 21.5H8C7.20435 21.5 6.44129 21.1839 5.87868 20.6213C5.31607 20.0587 5 19.2956 5 18.5V8C5 7.20435 5.31607 6.44129 5.87868 5.87868C6.44129 5.31607 7.20435 5 8 5H11.375C11.5739 5 11.7647 5.07902 11.9053 5.21967C12.046 5.36032 12.125 5.55109 12.125 5.75C12.125 5.94891 12.046 6.13968 11.9053 6.28033C11.7647 6.42098 11.5739 6.5 11.375 6.5H8ZM14.375 5.75C14.375 5.55109 14.454 5.36032 14.5947 5.21967C14.7353 5.07902 14.9261 5 15.125 5H20.75C20.9489 5 21.1397 5.07902 21.2803 5.21967C21.421 5.36032 21.5 5.55109 21.5 5.75V11.375C21.5 11.5739 21.421 11.7647 21.2803 11.9053C21.1397 12.046 20.9489 12.125 20.75 12.125C20.5511 12.125 20.3603 12.046 20.2197 11.9053C20.079 11.7647 20 11.5739 20 11.375V7.5605L15.6553 11.9052C15.5861 11.9769 15.5033 12.034 15.4118 12.0733C15.3203 12.1126 15.2219 12.1333 15.1223 12.1342C15.0227 12.1351 14.924 12.1161 14.8318 12.0784C14.7396 12.0407 14.6559 11.985 14.5855 11.9145C14.515 11.8441 14.4593 11.7604 14.4216 11.6682C14.3839 11.576 14.3649 11.4773 14.3658 11.3777C14.3667 11.2781 14.3874 11.1797 14.4267 11.0882C14.466 10.9967 14.5231 10.9139 14.5948 10.8448L18.9395 6.5H15.125C14.9261 6.5 14.7353 6.42098 14.5947 6.28033C14.454 6.13968 14.375 5.94891 14.375 5.75Z" fill="#333333"/>
</svg>
