<svg viewBox="0 0 27 27" fill="none" xmlns="http://www.w3.org/2000/svg">
<rect width="27" height="27" rx="2" fill="#333333"/>
<path d="M8.25 6.75C7.85218 6.75 7.47064 6.90804 7.18934 7.18934C6.90804 7.47064 6.75 7.85218 6.75 8.25V18.75C6.75 19.1478 6.90804 19.5294 7.18934 19.8107C7.47064 20.092 7.85218 20.25 8.25 20.25H18.75C19.1478 20.25 19.5294 20.092 19.8107 19.8107C20.092 19.5294 20.25 19.1478 20.25 18.75V15.375C20.25 15.1761 20.329 14.9853 20.4697 14.8447C20.6103 14.704 20.8011 14.625 21 14.625C21.1989 14.625 21.3897 14.704 21.5303 14.8447C21.671 14.9853 21.75 15.1761 21.75 15.375V18.75C21.75 19.5456 21.4339 20.3087 20.8713 20.8713C20.3087 21.4339 19.5456 21.75 18.75 21.75H8.25C7.45435 21.75 6.69129 21.4339 6.12868 20.8713C5.56607 20.3087 5.25 19.5456 5.25 18.75V8.25C5.25 7.45435 5.56607 6.69129 6.12868 6.12868C6.69129 5.56607 7.45435 5.25 8.25 5.25H11.625C11.8239 5.25 12.0147 5.32902 12.1553 5.46967C12.296 5.61032 12.375 5.80109 12.375 6C12.375 6.19891 12.296 6.38968 12.1553 6.53033C12.0147 6.67098 11.8239 6.75 11.625 6.75H8.25ZM14.625 6C14.625 5.80109 14.704 5.61032 14.8447 5.46967C14.9853 5.32902 15.1761 5.25 15.375 5.25H21C21.1989 5.25 21.3897 5.32902 21.5303 5.46967C21.671 5.61032 21.75 5.80109 21.75 6V11.625C21.75 11.8239 21.671 12.0147 21.5303 12.1553C21.3897 12.296 21.1989 12.375 21 12.375C20.8011 12.375 20.6103 12.296 20.4697 12.1553C20.329 12.0147 20.25 11.8239 20.25 11.625V7.8105L15.9053 12.1552C15.8361 12.2269 15.7533 12.284 15.6618 12.3233C15.5703 12.3626 15.4719 12.3833 15.3723 12.3842C15.2727 12.3851 15.174 12.3661 15.0818 12.3284C14.9896 12.2907 14.9059 12.235 14.8355 12.1645C14.765 12.0941 14.7093 12.0104 14.6716 11.9182C14.6339 11.826 14.6149 11.7273 14.6158 11.6277C14.6167 11.5281 14.6374 11.4297 14.6767 11.3382C14.716 11.2467 14.7731 11.1639 14.8448 11.0948L19.1895 6.75H15.375C15.1761 6.75 14.9853 6.67098 14.8447 6.53033C14.704 6.38968 14.625 6.19891 14.625 6Z" fill="white"/>
</svg>
